<mxfile host="app.diagrams.net" modified="2023-06-04T00:21:55.549Z" agent="Mozilla/5.0 (Windows NT 10.0; Win64; x64) AppleWebKit/537.36 (KHTML, like Gecko) Chrome/113.0.0.0 Safari/537.36 Edg/113.0.1774.57" etag="98MBw2qGdBgljMqveO6n" version="21.3.0" type="device">
  <diagram name="Side-1" id="Lm8Lxion_mw2OkoYkOi0">
    <mxGraphModel dx="1622" dy="927" grid="1" gridSize="10" guides="1" tooltips="1" connect="1" arrows="1" fold="1" page="1" pageScale="1" pageWidth="827" pageHeight="1169" math="0" shadow="0">
      <root>
        <mxCell id="0" />
        <mxCell id="1" parent="0" />
        <mxCell id="bI8WeHNzFJDsldCCA7HD-8" value="" style="edgeStyle=orthogonalEdgeStyle;rounded=0;orthogonalLoop=1;jettySize=auto;html=1;" edge="1" parent="1" source="bI8WeHNzFJDsldCCA7HD-1" target="bI8WeHNzFJDsldCCA7HD-7">
          <mxGeometry relative="1" as="geometry" />
        </mxCell>
        <mxCell id="bI8WeHNzFJDsldCCA7HD-1" value="" style="outlineConnect=0;dashed=0;verticalLabelPosition=bottom;verticalAlign=top;align=center;html=1;shape=mxgraph.aws3.management_console;fillColor=#D2D3D3;gradientColor=none;" vertex="1" parent="1">
          <mxGeometry x="364" y="130" width="63" height="63" as="geometry" />
        </mxCell>
        <mxCell id="bI8WeHNzFJDsldCCA7HD-2" value="Client PC" style="text;html=1;align=center;verticalAlign=middle;resizable=0;points=[];autosize=1;strokeColor=none;fillColor=none;fontStyle=1" vertex="1" parent="1">
          <mxGeometry x="351.5" y="100" width="80" height="30" as="geometry" />
        </mxCell>
        <mxCell id="bI8WeHNzFJDsldCCA7HD-14" style="edgeStyle=orthogonalEdgeStyle;rounded=0;orthogonalLoop=1;jettySize=auto;html=1;entryX=0.514;entryY=0.1;entryDx=0;entryDy=0;entryPerimeter=0;" edge="1" parent="1" source="bI8WeHNzFJDsldCCA7HD-3" target="bI8WeHNzFJDsldCCA7HD-11">
          <mxGeometry relative="1" as="geometry" />
        </mxCell>
        <mxCell id="bI8WeHNzFJDsldCCA7HD-3" value="" style="image;aspect=fixed;html=1;points=[];align=center;fontSize=12;image=img/lib/azure2/general/Subscriptions.svg;" vertex="1" parent="1">
          <mxGeometry x="373" y="390" width="44" height="71" as="geometry" />
        </mxCell>
        <mxCell id="bI8WeHNzFJDsldCCA7HD-4" value="Azure Subscription" style="text;html=1;align=center;verticalAlign=middle;resizable=0;points=[];autosize=1;strokeColor=none;fillColor=none;fontStyle=1" vertex="1" parent="1">
          <mxGeometry x="330" y="360" width="130" height="30" as="geometry" />
        </mxCell>
        <mxCell id="bI8WeHNzFJDsldCCA7HD-9" value="" style="edgeStyle=orthogonalEdgeStyle;rounded=0;orthogonalLoop=1;jettySize=auto;html=1;" edge="1" parent="1" source="bI8WeHNzFJDsldCCA7HD-6" target="bI8WeHNzFJDsldCCA7HD-4">
          <mxGeometry relative="1" as="geometry" />
        </mxCell>
        <mxCell id="bI8WeHNzFJDsldCCA7HD-6" value="" style="image;aspect=fixed;html=1;points=[];align=center;fontSize=12;image=img/lib/azure2/identity/Enterprise_Applications.svg;" vertex="1" parent="1">
          <mxGeometry x="363" y="260" width="64" height="64" as="geometry" />
        </mxCell>
        <mxCell id="bI8WeHNzFJDsldCCA7HD-7" value="Service Connection / SPN" style="text;html=1;align=center;verticalAlign=middle;resizable=0;points=[];autosize=1;strokeColor=none;fillColor=none;fontStyle=1" vertex="1" parent="1">
          <mxGeometry x="310" y="230" width="170" height="30" as="geometry" />
        </mxCell>
        <mxCell id="bI8WeHNzFJDsldCCA7HD-11" value="demo-rg" style="text;html=1;align=center;verticalAlign=middle;resizable=0;points=[];autosize=1;strokeColor=none;fillColor=none;fontStyle=1" vertex="1" parent="1">
          <mxGeometry x="359" y="491" width="70" height="30" as="geometry" />
        </mxCell>
        <mxCell id="bI8WeHNzFJDsldCCA7HD-12" value="" style="image;aspect=fixed;html=1;points=[];align=center;fontSize=12;image=img/lib/azure2/general/Resource_Groups.svg;" vertex="1" parent="1">
          <mxGeometry x="361" y="521" width="68" height="64" as="geometry" />
        </mxCell>
        <mxCell id="bI8WeHNzFJDsldCCA7HD-15" value="" style="image;aspect=fixed;html=1;points=[];align=center;fontSize=12;image=img/lib/azure2/networking/Virtual_Networks.svg;" vertex="1" parent="1">
          <mxGeometry x="220" y="735" width="67" height="40" as="geometry" />
        </mxCell>
        <mxCell id="bI8WeHNzFJDsldCCA7HD-16" value="demo-vn" style="text;html=1;align=center;verticalAlign=middle;resizable=0;points=[];autosize=1;strokeColor=none;fillColor=none;fontStyle=1" vertex="1" parent="1">
          <mxGeometry x="218.5" y="705" width="70" height="30" as="geometry" />
        </mxCell>
        <mxCell id="bI8WeHNzFJDsldCCA7HD-17" value="address space:&amp;nbsp;192.168.0.0/24" style="text;html=1;align=center;verticalAlign=middle;resizable=0;points=[];autosize=1;strokeColor=none;fillColor=none;fontStyle=1" vertex="1" parent="1">
          <mxGeometry x="288.5" y="740" width="190" height="30" as="geometry" />
        </mxCell>
        <mxCell id="bI8WeHNzFJDsldCCA7HD-18" value="" style="image;aspect=fixed;html=1;points=[];align=center;fontSize=12;image=img/lib/azure2/networking/Virtual_Networks_Classic.svg;" vertex="1" parent="1">
          <mxGeometry x="328" y="935" width="67" height="40" as="geometry" />
        </mxCell>
        <mxCell id="bI8WeHNzFJDsldCCA7HD-24" value="" style="edgeStyle=orthogonalEdgeStyle;rounded=0;orthogonalLoop=1;jettySize=auto;html=1;" edge="1" parent="1" source="bI8WeHNzFJDsldCCA7HD-19">
          <mxGeometry relative="1" as="geometry">
            <mxPoint x="361.5" y="825" as="targetPoint" />
          </mxGeometry>
        </mxCell>
        <mxCell id="bI8WeHNzFJDsldCCA7HD-19" value="demo-client-subnet" style="text;html=1;align=center;verticalAlign=middle;resizable=0;points=[];autosize=1;strokeColor=none;fillColor=none;fontStyle=1" vertex="1" parent="1">
          <mxGeometry x="296.5" y="905" width="130" height="30" as="geometry" />
        </mxCell>
        <mxCell id="bI8WeHNzFJDsldCCA7HD-20" value="address space: 192.168.0.64/26" style="text;html=1;align=center;verticalAlign=middle;resizable=0;points=[];autosize=1;strokeColor=none;fillColor=none;fontStyle=1" vertex="1" parent="1">
          <mxGeometry x="400" y="940" width="200" height="30" as="geometry" />
        </mxCell>
        <mxCell id="bI8WeHNzFJDsldCCA7HD-22" value="" style="edgeStyle=orthogonalEdgeStyle;rounded=0;orthogonalLoop=1;jettySize=auto;html=1;" edge="1" parent="1" source="bI8WeHNzFJDsldCCA7HD-21" target="bI8WeHNzFJDsldCCA7HD-19">
          <mxGeometry relative="1" as="geometry" />
        </mxCell>
        <mxCell id="bI8WeHNzFJDsldCCA7HD-21" value="" style="image;aspect=fixed;html=1;points=[];align=center;fontSize=12;image=img/lib/azure2/networking/Network_Security_Groups.svg;" vertex="1" parent="1">
          <mxGeometry x="333" y="805" width="56.00000000000001" height="68" as="geometry" />
        </mxCell>
        <mxCell id="bI8WeHNzFJDsldCCA7HD-25" value="demo-client-nsg" style="text;html=1;align=center;verticalAlign=middle;resizable=0;points=[];autosize=1;strokeColor=none;fillColor=none;fontStyle=1" vertex="1" parent="1">
          <mxGeometry x="301" y="780" width="120" height="30" as="geometry" />
        </mxCell>
        <mxCell id="bI8WeHNzFJDsldCCA7HD-26" value="" style="image;aspect=fixed;html=1;points=[];align=center;fontSize=12;image=img/lib/azure2/compute/Virtual_Machine.svg;" vertex="1" parent="1">
          <mxGeometry x="267" y="1015" width="69" height="64" as="geometry" />
        </mxCell>
        <mxCell id="bI8WeHNzFJDsldCCA7HD-27" value="demo-vm01" style="text;html=1;align=center;verticalAlign=middle;resizable=0;points=[];autosize=1;strokeColor=none;fillColor=none;fontStyle=1" vertex="1" parent="1">
          <mxGeometry x="256.5" y="989" width="90" height="30" as="geometry" />
        </mxCell>
        <mxCell id="bI8WeHNzFJDsldCCA7HD-29" value="" style="image;aspect=fixed;html=1;points=[];align=center;fontSize=12;image=img/lib/azure2/networking/Network_Interfaces.svg;" vertex="1" parent="1">
          <mxGeometry x="400" y="1013" width="68" height="60" as="geometry" />
        </mxCell>
        <mxCell id="bI8WeHNzFJDsldCCA7HD-30" value="demo-client-nic01" style="text;html=1;align=center;verticalAlign=middle;resizable=0;points=[];autosize=1;strokeColor=none;fillColor=none;fontStyle=1" vertex="1" parent="1">
          <mxGeometry x="369" y="989" width="130" height="30" as="geometry" />
        </mxCell>
        <mxCell id="bI8WeHNzFJDsldCCA7HD-43" value="" style="edgeStyle=orthogonalEdgeStyle;rounded=0;orthogonalLoop=1;jettySize=auto;html=1;" edge="1" parent="1" source="bI8WeHNzFJDsldCCA7HD-31">
          <mxGeometry relative="1" as="geometry">
            <mxPoint x="470" y="1039" as="targetPoint" />
          </mxGeometry>
        </mxCell>
        <mxCell id="bI8WeHNzFJDsldCCA7HD-31" value="" style="image;aspect=fixed;html=1;points=[];align=center;fontSize=12;image=img/lib/azure2/networking/Public_IP_Addresses.svg;" vertex="1" parent="1">
          <mxGeometry x="532.5" y="1013" width="65" height="52" as="geometry" />
        </mxCell>
        <mxCell id="bI8WeHNzFJDsldCCA7HD-32" value="demo-client-pip" style="text;html=1;align=center;verticalAlign=middle;resizable=0;points=[];autosize=1;strokeColor=none;fillColor=none;fontStyle=1" vertex="1" parent="1">
          <mxGeometry x="510" y="983" width="110" height="30" as="geometry" />
        </mxCell>
        <mxCell id="bI8WeHNzFJDsldCCA7HD-33" value="ALLOW RDP FROM CLIENT PC PUBLIC IP" style="text;html=1;align=center;verticalAlign=middle;resizable=0;points=[];autosize=1;strokeColor=none;fillColor=none;fontStyle=1" vertex="1" parent="1">
          <mxGeometry x="395" y="824" width="260" height="30" as="geometry" />
        </mxCell>
        <mxCell id="bI8WeHNzFJDsldCCA7HD-45" value="" style="edgeStyle=orthogonalEdgeStyle;rounded=0;orthogonalLoop=1;jettySize=auto;html=1;" edge="1" parent="1">
          <mxGeometry relative="1" as="geometry">
            <mxPoint x="399" y="1039" as="sourcePoint" />
            <mxPoint x="336" y="1039" as="targetPoint" />
          </mxGeometry>
        </mxCell>
        <mxCell id="bI8WeHNzFJDsldCCA7HD-46" value="" style="endArrow=none;dashed=1;html=1;rounded=0;" edge="1" parent="1">
          <mxGeometry width="50" height="50" relative="1" as="geometry">
            <mxPoint x="195" y="1130" as="sourcePoint" />
            <mxPoint x="195" y="755" as="targetPoint" />
          </mxGeometry>
        </mxCell>
        <mxCell id="bI8WeHNzFJDsldCCA7HD-48" value="" style="endArrow=none;dashed=1;html=1;rounded=0;" edge="1" parent="1">
          <mxGeometry width="50" height="50" relative="1" as="geometry">
            <mxPoint x="657" y="1132" as="sourcePoint" />
            <mxPoint x="197" y="1132" as="targetPoint" />
          </mxGeometry>
        </mxCell>
        <mxCell id="bI8WeHNzFJDsldCCA7HD-49" value="" style="endArrow=none;dashed=1;html=1;rounded=0;" edge="1" parent="1">
          <mxGeometry width="50" height="50" relative="1" as="geometry">
            <mxPoint x="660" y="1130" as="sourcePoint" />
            <mxPoint x="660" y="755" as="targetPoint" />
          </mxGeometry>
        </mxCell>
        <mxCell id="bI8WeHNzFJDsldCCA7HD-50" value="" style="endArrow=none;dashed=1;html=1;rounded=0;" edge="1" parent="1">
          <mxGeometry width="50" height="50" relative="1" as="geometry">
            <mxPoint x="480" y="755" as="sourcePoint" />
            <mxPoint x="660" y="755" as="targetPoint" />
          </mxGeometry>
        </mxCell>
        <mxCell id="bI8WeHNzFJDsldCCA7HD-51" value="" style="endArrow=none;dashed=1;html=1;rounded=0;" edge="1" parent="1">
          <mxGeometry width="50" height="50" relative="1" as="geometry">
            <mxPoint x="200" y="755" as="sourcePoint" />
            <mxPoint x="213" y="755" as="targetPoint" />
          </mxGeometry>
        </mxCell>
        <mxCell id="bI8WeHNzFJDsldCCA7HD-52" value="" style="endArrow=none;dashed=1;html=1;dashPattern=1 3;strokeWidth=2;rounded=0;" edge="1" parent="1">
          <mxGeometry width="50" height="50" relative="1" as="geometry">
            <mxPoint x="230" y="955" as="sourcePoint" />
            <mxPoint x="320" y="955" as="targetPoint" />
          </mxGeometry>
        </mxCell>
        <mxCell id="bI8WeHNzFJDsldCCA7HD-53" value="" style="endArrow=none;dashed=1;html=1;dashPattern=1 3;strokeWidth=2;rounded=0;" edge="1" parent="1">
          <mxGeometry width="50" height="50" relative="1" as="geometry">
            <mxPoint x="231" y="1099" as="sourcePoint" />
            <mxPoint x="231" y="959" as="targetPoint" />
          </mxGeometry>
        </mxCell>
        <mxCell id="bI8WeHNzFJDsldCCA7HD-54" value="" style="endArrow=none;dashed=1;html=1;dashPattern=1 3;strokeWidth=2;rounded=0;" edge="1" parent="1">
          <mxGeometry width="50" height="50" relative="1" as="geometry">
            <mxPoint x="238" y="1098" as="sourcePoint" />
            <mxPoint x="630" y="1098" as="targetPoint" />
          </mxGeometry>
        </mxCell>
        <mxCell id="bI8WeHNzFJDsldCCA7HD-55" value="" style="endArrow=none;dashed=1;html=1;dashPattern=1 3;strokeWidth=2;rounded=0;" edge="1" parent="1">
          <mxGeometry width="50" height="50" relative="1" as="geometry">
            <mxPoint x="623" y="1092" as="sourcePoint" />
            <mxPoint x="623" y="955" as="targetPoint" />
          </mxGeometry>
        </mxCell>
        <mxCell id="bI8WeHNzFJDsldCCA7HD-56" value="" style="endArrow=none;dashed=1;html=1;dashPattern=1 3;strokeWidth=2;rounded=0;exitX=1.005;exitY=0.508;exitDx=0;exitDy=0;exitPerimeter=0;" edge="1" parent="1" source="bI8WeHNzFJDsldCCA7HD-20">
          <mxGeometry width="50" height="50" relative="1" as="geometry">
            <mxPoint x="610" y="955" as="sourcePoint" />
            <mxPoint x="620" y="955" as="targetPoint" />
          </mxGeometry>
        </mxCell>
        <mxCell id="bI8WeHNzFJDsldCCA7HD-57" value="" style="image;aspect=fixed;html=1;points=[];align=center;fontSize=12;image=img/lib/azure2/storage/Storage_Accounts.svg;" vertex="1" parent="1">
          <mxGeometry x="308.5" y="629" width="65" height="52" as="geometry" />
        </mxCell>
        <mxCell id="bI8WeHNzFJDsldCCA7HD-58" value="demo&amp;lt;3 random digits&amp;gt;storage" style="text;html=1;align=center;verticalAlign=middle;resizable=0;points=[];autosize=1;strokeColor=none;fillColor=none;fontStyle=1" vertex="1" parent="1">
          <mxGeometry x="241" y="602" width="200" height="30" as="geometry" />
        </mxCell>
        <mxCell id="bI8WeHNzFJDsldCCA7HD-59" value="" style="image;aspect=fixed;html=1;points=[];align=center;fontSize=12;image=img/lib/azure2/security/Key_Vaults.svg;" vertex="1" parent="1">
          <mxGeometry x="489" y="629" width="68" height="68" as="geometry" />
        </mxCell>
        <mxCell id="bI8WeHNzFJDsldCCA7HD-60" value="demo-&amp;lt;3 random digits&amp;gt;-kv" style="text;html=1;align=center;verticalAlign=middle;resizable=0;points=[];autosize=1;strokeColor=none;fillColor=none;fontStyle=1" vertex="1" parent="1">
          <mxGeometry x="433" y="602" width="180" height="30" as="geometry" />
        </mxCell>
        <mxCell id="bI8WeHNzFJDsldCCA7HD-61" value="" style="endArrow=none;dashed=1;html=1;rounded=0;endSize=100;startSize=6;strokeWidth=1;dashPattern=1 4;" edge="1" parent="1">
          <mxGeometry width="50" height="50" relative="1" as="geometry">
            <mxPoint x="160" y="550" as="sourcePoint" />
            <mxPoint x="350" y="550" as="targetPoint" />
          </mxGeometry>
        </mxCell>
        <mxCell id="bI8WeHNzFJDsldCCA7HD-62" value="" style="endArrow=none;dashed=1;html=1;rounded=0;endSize=100;startSize=6;strokeWidth=1;dashPattern=1 4;" edge="1" parent="1">
          <mxGeometry width="50" height="50" relative="1" as="geometry">
            <mxPoint x="160" y="550" as="sourcePoint" />
            <mxPoint x="160" y="1160" as="targetPoint" />
          </mxGeometry>
        </mxCell>
        <mxCell id="bI8WeHNzFJDsldCCA7HD-64" value="" style="endArrow=none;dashed=1;html=1;rounded=0;endSize=100;startSize=6;strokeWidth=1;dashPattern=1 4;" edge="1" parent="1">
          <mxGeometry width="50" height="50" relative="1" as="geometry">
            <mxPoint x="160" y="1160" as="sourcePoint" />
            <mxPoint x="700" y="1160" as="targetPoint" />
          </mxGeometry>
        </mxCell>
        <mxCell id="bI8WeHNzFJDsldCCA7HD-65" value="" style="endArrow=none;dashed=1;html=1;rounded=0;endSize=100;startSize=6;strokeWidth=1;dashPattern=1 4;" edge="1" parent="1">
          <mxGeometry width="50" height="50" relative="1" as="geometry">
            <mxPoint x="700" y="550" as="sourcePoint" />
            <mxPoint x="700" y="1160" as="targetPoint" />
          </mxGeometry>
        </mxCell>
        <mxCell id="bI8WeHNzFJDsldCCA7HD-66" value="" style="endArrow=none;dashed=1;html=1;rounded=0;endSize=100;startSize=6;strokeWidth=1;dashPattern=1 4;fontStyle=1" edge="1" parent="1">
          <mxGeometry width="50" height="50" relative="1" as="geometry">
            <mxPoint x="430" y="550" as="sourcePoint" />
            <mxPoint x="700" y="550" as="targetPoint" />
          </mxGeometry>
        </mxCell>
      </root>
    </mxGraphModel>
  </diagram>
</mxfile>
